<svg xmlns="http://www.w3.org/2000/svg" viewBox="0 0 800 430" fill="none">
  <defs><linearGradient id="bg7h" x1="0" y1="0" x2="0" y2="1"><stop offset="0%" stop-color="#050811"/><stop offset="100%" stop-color="#0f1219"/></linearGradient></defs>
  <rect width="800" height="430" rx="12" fill="url(#bg7h)"/><rect x="0.5" y="0.5" width="799" height="429" rx="12" stroke="#1e2433"/>
  <text x="400" y="34" text-anchor="middle" font-family="Inter,system-ui,sans-serif" font-size="15" font-weight="700" fill="#f1f5f9">Integrated Decision Tree</text>
  <rect x="300" y="78" width="200" height="56" rx="8" fill="rgba(56,189,248,0.05)" stroke="rgba(56,189,248,0.2)"/><text x="316" y="112" font-family="Inter,system-ui,sans-serif" font-size="11" fill="#7dd3fc">Start: 10-K / 20-F baseline</text>
  <rect x="120" y="170" width="220" height="56" rx="8" fill="rgba(34,197,94,0.05)" stroke="rgba(34,197,94,0.2)"/><text x="136" y="204" font-family="Inter,system-ui,sans-serif" font-size="11" fill="#86efac">10-Q drift detected?</text>
  <rect x="460" y="170" width="220" height="56" rx="8" fill="rgba(100,116,139,0.06)" stroke="rgba(100,116,139,0.2)"/><text x="476" y="204" font-family="Inter,system-ui,sans-serif" font-size="11" fill="#cbd5e1">No major drift</text>
  <rect x="120" y="262" width="220" height="56" rx="8" fill="rgba(251,146,60,0.05)" stroke="rgba(251,146,60,0.2)"/><text x="136" y="296" font-family="Inter,system-ui,sans-serif" font-size="11" fill="#fdba74">Trace 8-K / 6-K events</text>
  <rect x="460" y="262" width="220" height="56" rx="8" fill="rgba(139,92,246,0.05)" stroke="rgba(139,92,246,0.2)"/><text x="476" y="296" font-family="Inter,system-ui,sans-serif" font-size="11" fill="#c4b5fd">Overlay 13F context</text>
  <path d="M400 134 L230 170 M400 134 L570 170 M230 226 L230 262 M570 226 L570 262" stroke="#334155" stroke-width="2"/>
</svg>
