<svg xmlns="http://www.w3.org/2000/svg" viewBox="0 0 800 430" fill="none">
  <defs><linearGradient id="bg8c" x1="0" y1="0" x2="0" y2="1"><stop offset="0%" stop-color="#050811"/><stop offset="100%" stop-color="#0f1219"/></linearGradient></defs>
  <rect width="800" height="430" rx="12" fill="url(#bg8c)"/><rect x="0.5" y="0.5" width="799" height="429" rx="12" stroke="#1e2433"/>
  <text x="400" y="34" text-anchor="middle" font-family="Inter,system-ui,sans-serif" font-size="15" font-weight="700" fill="#f1f5f9">10-Minute Checklist</text>
  <text x="400" y="52" text-anchor="middle" font-family="Inter,system-ui,sans-serif" font-size="11" fill="#64748b">Fast workflow for reading business section before numbers</text>

  <rect x="40" y="88" width="170" height="240" rx="8" fill="rgba(56,189,248,0.05)" stroke="rgba(56,189,248,0.2)"/>
  <text x="56" y="112" font-family="JetBrains Mono,monospace" font-size="10" fill="#7dd3fc">0-2 min</text>
  <text x="56" y="132" font-family="Inter,system-ui,sans-serif" font-size="10" fill="#94a3b8">Market & competition scan</text>

  <rect x="220" y="88" width="170" height="240" rx="8" fill="rgba(34,197,94,0.05)" stroke="rgba(34,197,94,0.2)"/>
  <text x="236" y="112" font-family="JetBrains Mono,monospace" font-size="10" fill="#86efac">2-5 min</text>
  <text x="236" y="132" font-family="Inter,system-ui,sans-serif" font-size="10" fill="#94a3b8">Customer & cost pressure</text>

  <rect x="400" y="88" width="170" height="240" rx="8" fill="rgba(251,146,60,0.05)" stroke="rgba(251,146,60,0.2)"/>
  <text x="416" y="112" font-family="JetBrains Mono,monospace" font-size="10" fill="#fdba74">5-8 min</text>
  <text x="416" y="132" font-family="Inter,system-ui,sans-serif" font-size="10" fill="#94a3b8">New business evidence check</text>

  <rect x="580" y="88" width="180" height="240" rx="8" fill="rgba(234,70,71,0.05)" stroke="rgba(234,70,71,0.2)"/>
  <text x="596" y="112" font-family="JetBrains Mono,monospace" font-size="10" fill="#f87171">8-10 min</text>
  <text x="596" y="132" font-family="Inter,system-ui,sans-serif" font-size="10" fill="#94a3b8">Narrative vs statement cross-check</text>

  <path d="M210 180 L220 180 M390 180 L400 180 M570 180 L580 180" stroke="#334155" stroke-width="2"/>
</svg>
