<svg xmlns="http://www.w3.org/2000/svg" width="1200" height="720" viewBox="0 0 1200 720">
<defs>
<linearGradient id="g" x1="0" x2="1" y1="0" y2="1"><stop offset="0%" stop-color="#111827"/><stop offset="100%" stop-color="#DC2626"/></linearGradient>
</defs>
<rect x="0" y="0" width="1200" height="720" rx="0" fill="url(#g)" stroke="none" stroke-width="1"/>
<rect x="36" y="36" width="1128" height="648" rx="36" fill="#FFFFFF" stroke="#D1D5DB" stroke-width="1"/>
<rect x="36" y="36" width="1128" height="116" rx="36" fill="#111827" stroke="none" stroke-width="1"/>
<text x="72" y="96" font-family="Pretendard, Noto Sans KR, sans-serif" font-size="34" font-weight="700" fill="#FFFFFF">040. ?? ?? ?? ?? ?? ?? ?? ??</text>
<text x="72" y="132" font-family="Pretendard, Noto Sans KR, sans-serif" font-size="18" font-weight="500" fill="#E5E7EB">DartLab ?? ??? SVG</text>
<rect x="72" y="202" width="1056" height="424" rx="28" fill="#F8FAFC" stroke="#CBD5E1" stroke-width="2"/>
<text x="96" y="248" font-family="Pretendard, Noto Sans KR, sans-serif" font-size="28" font-weight="700" fill="#111827">?? ????? ?? ? ??</text>
<rect x="100" y="286" width="420" height="86" rx="28" fill="#FDEAEA" stroke="#DC2626" stroke-width="2"/>
<text x="124" y="334" font-family="Pretendard, Noto Sans KR, sans-serif" font-size="24" font-weight="700" fill="#111827">KAM ???</text>
<rect x="600" y="286" width="420" height="86" rx="28" fill="#FDEAEA" stroke="#DC2626" stroke-width="2"/>
<text x="624" y="334" font-family="Pretendard, Noto Sans KR, sans-serif" font-size="24" font-weight="700" fill="#111827">?? ?? ??</text>
<rect x="100" y="426" width="420" height="86" rx="28" fill="#FDEAEA" stroke="#DC2626" stroke-width="2"/>
<text x="124" y="474" font-family="Pretendard, Noto Sans KR, sans-serif" font-size="24" font-weight="700" fill="#111827">CFO ??</text>
<rect x="600" y="426" width="420" height="86" rx="28" fill="#FDEAEA" stroke="#DC2626" stroke-width="2"/>
<text x="624" y="474" font-family="Pretendard, Noto Sans KR, sans-serif" font-size="24" font-weight="700" fill="#111827">???? ??</text>
<text x="96" y="586" font-family="Pretendard, Noto Sans KR, sans-serif" font-size="22" font-weight="500" fill="#475569">?? ??? ??? ?? ?? ?? ???? ????.</text>
<text x="72" y="666" font-family="Pretendard, Noto Sans KR, sans-serif" font-size="20" font-weight="500" fill="#4B5563">??: ?? ?? ?? ?? ??? ? ? ???? ??? ?? ??? ?? ?? ??.</text>
</svg>