<svg xmlns="http://www.w3.org/2000/svg" width="800" height="430" viewBox="0 0 800 430" fill="none">
  <rect width="800" height="430" rx="28" fill="#050811"/>
  <rect x="24" y="24" width="752" height="382" rx="24" fill="#0f1219" stroke="#1e2433"/>
  <text x="48" y="62" fill="#f8fafc" font-family="Inter,system-ui,sans-serif" font-size="24" font-weight="700">Reading Order</text>
  <text x="48" y="86" fill="#94a3b8" font-family="Inter,system-ui,sans-serif" font-size="12">Start from context, end with trust.</text>
  <rect x="68" y="150" width="110" height="64" rx="14" fill="#111827" stroke="#334155"/><text x="112" y="188" fill="#f8fafc" font-size="13" font-weight="700" font-family="Inter,system-ui,sans-serif">1. Overview</text>
  <rect x="214" y="150" width="110" height="64" rx="14" fill="#111827" stroke="#334155"/><text x="243" y="188" fill="#f8fafc" font-size="13" font-weight="700" font-family="Inter,system-ui,sans-serif">2. Business</text>
  <rect x="360" y="150" width="110" height="64" rx="14" fill="#111827" stroke="#334155"/><text x="400" y="188" fill="#f8fafc" font-size="13" font-weight="700" font-family="Inter,system-ui,sans-serif">3. Risk</text>
  <rect x="506" y="150" width="110" height="64" rx="14" fill="#111827" stroke="#334155"/><text x="530" y="188" fill="#f8fafc" font-size="13" font-weight="700" font-family="Inter,system-ui,sans-serif">4. Notes</text>
  <rect x="652" y="150" width="110" height="64" rx="14" fill="#111827" stroke="#334155"/><text x="675" y="188" fill="#f8fafc" font-size="13" font-weight="700" font-family="Inter,system-ui,sans-serif">5. Audit</text>
  <path d="M178 182H214M324 182H360M470 182H506M616 182H652" stroke="#ea4647" stroke-width="3"/>
</svg>
