<svg xmlns="http://www.w3.org/2000/svg" viewBox="0 0 1280 720" role="img" aria-labelledby="title desc">
  <title>?? ??? ?????? ?? ???</title>
  <desc>?? ??? ?????? ?? ??? ?? ??? ?? ??? ??? ?????</desc>
  <defs>
    <linearGradient id="bg" x1="0" y1="0" x2="1" y2="1">
      <stop offset="0%" stop-color="#0b1320"/>
      <stop offset="100%" stop-color="#12253e"/>
    </linearGradient>
  </defs>
  <rect width="100%" height="100%" fill="url(#bg)"/>
  
  <text x="88" y="82" font-size="42" font-family="Pretendard, sans-serif" font-weight="800" fill="#f6f8fb">?? ??? ?????? ?? ???</text>
  <text x="88" y="122" font-size="22" font-family="Pretendard, sans-serif" fill="#cbd7e6">???? ?? ??? ??? ???? ? ??? ??</text>
  <rect x="88" y="146" width="1100" height="520" rx="28" fill="#10223a" opacity="0.62" stroke="#5dade2" stroke-width="2"/>
  <rect x="110" y="170" width="1060" height="78" rx="20" fill="#ffffff" opacity="0.95"/><rect x="126" y="184" width="160" height="50" rx="16" fill="#173558"/><text x="206" y="217" text-anchor="middle" font-size="24" font-family="Pretendard, sans-serif" font-weight="700" fill="#f8fbff">??</text><text x="318" y="217" font-size="25" font-family="Pretendard, sans-serif" fill="#19324d">?? ??? vs ??? ??</text><rect x="110" y="272" width="1060" height="78" rx="20" fill="#ffffff" opacity="0.95"/><rect x="126" y="286" width="160" height="50" rx="16" fill="#173558"/><text x="206" y="319" text-anchor="middle" font-size="24" font-family="Pretendard, sans-serif" font-weight="700" fill="#f8fbff">??</text><text x="318" y="319" font-size="25" font-family="Pretendard, sans-serif" fill="#19324d">?? ?? ?? ??</text><rect x="110" y="374" width="1060" height="78" rx="20" fill="#ffffff" opacity="0.95"/><rect x="126" y="388" width="160" height="50" rx="16" fill="#173558"/><text x="206" y="421" text-anchor="middle" font-size="24" font-family="Pretendard, sans-serif" font-weight="700" fill="#f8fbff">??</text><text x="318" y="421" font-size="25" font-family="Pretendard, sans-serif" fill="#19324d">?? ???????? ??</text><rect x="110" y="476" width="1060" height="78" rx="20" fill="#ffffff" opacity="0.95"/><rect x="126" y="490" width="160" height="50" rx="16" fill="#173558"/><text x="206" y="523" text-anchor="middle" font-size="24" font-family="Pretendard, sans-serif" font-weight="700" fill="#f8fbff">??</text><text x="318" y="523" font-size="25" font-family="Pretendard, sans-serif" fill="#19324d">?????????? ???</text><rect x="110" y="578" width="1060" height="78" rx="20" fill="#ffffff" opacity="0.95"/><rect x="126" y="592" width="160" height="50" rx="16" fill="#173558"/><text x="206" y="625" text-anchor="middle" font-size="24" font-family="Pretendard, sans-serif" font-weight="700" fill="#f8fbff">??</text><text x="318" y="625" font-size="25" font-family="Pretendard, sans-serif" fill="#19324d">???????? ??</text>

</svg>