<svg xmlns="http://www.w3.org/2000/svg" viewBox="0 0 1280 720" role="img" aria-labelledby="title desc">
  <title>??? ???? ?? ?? ??</title>
  <desc>??? ???? ?? ?? ?? ?? ??? ?? ??? ??? ?????</desc>
  <defs>
    <linearGradient id="bg" x1="0" y1="0" x2="1" y2="1">
      <stop offset="0%" stop-color="#0b1320"/>
      <stop offset="100%" stop-color="#12253e"/>
    </linearGradient>
  </defs>
  <rect width="100%" height="100%" fill="url(#bg)"/>
  <text x="88" y="82" font-size="42" font-family="Pretendard, sans-serif" font-weight="800" fill="#f6f8fb">??? ???? ?? ?? ??</text>
  <text x="88" y="122" font-size="22" font-family="Pretendard, sans-serif" fill="#cbd7e6">?? ??? ???? ??? ?? ??? ????</text>
  <rect x="498" y="170" width="284" height="86" rx="22" fill="#ffffff" opacity="0.96"/>
  <text x="640" y="206" text-anchor="middle" font-size="27" font-family="Pretendard, sans-serif" font-weight="700" fill="#173558">?? ??? ? ????</text>
  <text x="640" y="236" text-anchor="middle" font-size="20" font-family="Pretendard, sans-serif" fill="#425e79">??? ?? ??? ?? ??</text>
  <path d="M 640 256 L 640 320" stroke="#9cc7ff" stroke-width="8" stroke-linecap="round"/>
  <path d="M 300 320 L 980 320" stroke="#9cc7ff" stroke-width="8" stroke-linecap="round"/>
  <path d="M 220 320 L 220 364" stroke="#9cc7ff" stroke-width="8" stroke-linecap="round"/>
  <rect x="120" y="364" width="240" height="190" rx="26" fill="#ffffff" opacity="0.97"/>
  <rect x="138" y="384" width="204" height="46" rx="16" fill="#7bd389"/>
  <text x="240" y="414" text-anchor="middle" font-size="24" font-family="Pretendard, sans-serif" font-weight="700" fill="#10233a">??? ???</text>
  <text x="148" y="462" font-size="21" font-family="Pretendard, sans-serif" fill="#173558">?? ???? ?? ??</text>
  <text x="148" y="502" font-size="19" font-family="Pretendard, sans-serif" fill="#48627d">?? ??? ??? ?? ??</text>
  <path d="M 540 320 L 540 364" stroke="#9cc7ff" stroke-width="8" stroke-linecap="round"/>
  <rect x="440" y="364" width="240" height="190" rx="26" fill="#ffffff" opacity="0.97"/>
  <rect x="458" y="384" width="204" height="46" rx="16" fill="#f4b942"/>
  <text x="560" y="414" text-anchor="middle" font-size="24" font-family="Pretendard, sans-serif" font-weight="700" fill="#10233a">??? ??</text>
  <text x="468" y="462" font-size="21" font-family="Pretendard, sans-serif" fill="#173558">????? ????</text>
  <text x="468" y="502" font-size="19" font-family="Pretendard, sans-serif" fill="#48627d">?? ??? ??? ?? ??</text>
  <path d="M 960 320 L 960 364" stroke="#9cc7ff" stroke-width="8" stroke-linecap="round"/>
  <rect x="860" y="364" width="240" height="190" rx="26" fill="#ffffff" opacity="0.97"/>
  <rect x="878" y="384" width="204" height="46" rx="16" fill="#f08a5d"/>
  <text x="980" y="414" text-anchor="middle" font-size="24" font-family="Pretendard, sans-serif" font-weight="700" fill="#10233a">??? ??</text>
  <text x="888" y="462" font-size="21" font-family="Pretendard, sans-serif" fill="#173558">?? ??? ?? ??? ???</text>
  <text x="888" y="502" font-size="19" font-family="Pretendard, sans-serif" fill="#48627d">?? ??? ??? ?? ??</text>
</svg>