<svg xmlns="http://www.w3.org/2000/svg" width="1280" height="720" viewBox="0 0 1280 720" role="img" aria-labelledby="title desc">
  <title>??????????? ???? ?? ??</title>
  <desc>?? ??? ??? ??? ??? ?? ??</desc>
  <defs>
    <linearGradient id="bg" x1="0" y1="0" x2="1" y2="1">
      <stop offset="0%" stop-color="#f8fafc"/>
      <stop offset="100%" stop-color="#e2e8f0"/>
    </linearGradient>
  </defs>
  <rect width="1280" height="720" fill="url(#bg)" rx="36"/>
  <rect x="40" y="36" width="1200" height="648" rx="28" fill="#ffffff" stroke="#cbd5e1"/>
  <text x="80" y="100" text-anchor="start" font-size="36" font-family="Pretendard, Noto Sans KR, sans-serif" font-weight="700" fill="#0f172a">??????????? ???? ?? ??</text>
  <text x="80" y="142" text-anchor="start" font-size="18" font-family="Pretendard, Noto Sans KR, sans-serif" font-weight="400" fill="#475569">?? ??? ??? ??? ??? ?? ??</text>
  <rect x="410" y="170" width="460" height="110" rx="22" fill="#eff6ff" stroke="#2563eb" stroke-width="2"/>
  <text x="640" y="214" text-anchor="middle" font-size="24" font-family="Pretendard, Noto Sans KR, sans-serif" font-weight="700" fill="#0f172a">? ??? ?? ???? ?? ???? ??</text>
  <text x="640" y="242" text-anchor="middle" font-size="24" font-family="Pretendard, Noto Sans KR, sans-serif" font-weight="700" fill="#0f172a">????</text>
  <line x1="640" y1="280" x2="640" y2="360" stroke="#94a3b8" stroke-width="5"/><polygon points="626,348 640,360 626,372" fill="#94a3b8"/>
  <line x1="350" y1="360" x2="930" y2="360" stroke="#94a3b8" stroke-width="5"/>
  <line x1="350" y1="360" x2="350" y2="410" stroke="#94a3b8" stroke-width="5"/>
  <line x1="930" y1="360" x2="930" y2="410" stroke="#94a3b8" stroke-width="5"/>
  <rect x="160" y="410" width="380" height="160" rx="22" fill="#f0fdf4" stroke="#16a34a" stroke-width="2"/>
  <text x="350" y="458" text-anchor="middle" font-size="25" font-family="Pretendard, Noto Sans KR, sans-serif" font-weight="700" fill="#166534">?? ??</text>
  <text x="350" y="498" text-anchor="middle" font-size="19" font-family="Pretendard, Noto Sans KR, sans-serif" font-weight="500" fill="#334155">?? ?? ??</text>
  <rect x="740" y="410" width="380" height="160" rx="22" fill="#fff7ed" stroke="#ea580c" stroke-width="2"/>
  <text x="930" y="458" text-anchor="middle" font-size="25" font-family="Pretendard, Noto Sans KR, sans-serif" font-weight="700" fill="#c2410c">?? ????? ??</text>
  <text x="930" y="498" text-anchor="middle" font-size="19" font-family="Pretendard, Noto Sans KR, sans-serif" font-weight="500" fill="#334155">?? ?? ??</text>
</svg>
