<svg xmlns="http://www.w3.org/2000/svg" width="1200" height="720" viewBox="0 0 1200 720" role="img" aria-labelledby="title desc">
  <title>???? ???? ?? ??</title>
  <desc>???? ???? ?? ?? ?? ??</desc>
  <rect width="1200" height="720" fill="#FCFBF8"/>
  <rect x="32" y="28" width="1136" height="664" rx="28" fill="#FFFFFF" stroke="#E9E3D8"/>
  <rect x="52" y="48" width="1096" height="92" rx="20" fill="#F3E4C8"/>
  <text x="84" y="92" font-size="36" font-weight="700" fill="#33230B">???? ???? ?? ??</text>
  <text x="84" y="126" font-size="18" fill="#33230B">DartLab Blog Visual Guide</text>
  <text x="96" y="200" font-size="24" font-weight="700" fill="#33230B">?? ?? ? ??? ??? ?? ??</text>
  <rect x="468" y="236" width="260" height="96" rx="20" fill="#F3E4C8" stroke="#8A5A12"/>
  <text x="498" y="294" font-size="28" font-weight="700" fill="#33230B">?? ?? ??</text>
  <text x="448" y="360" font-size="20" font-weight="500" fill="#33230B">? ???? ?? ????, ?? ????,</text>
  <text x="478" y="392" font-size="20" font-weight="500" fill="#33230B">?? ?? ???? ???? ????</text>
  <line x1="598" y1="332" x2="236" y2="430" stroke="#8A5A12" stroke-width="5" stroke-linecap="round"/>
  <rect x="126" y="430" width="268" height="156" rx="20" fill="#FFFFFF" stroke="#8A5A12"/>
  <text x="150" y="476" font-size="24" font-weight="700" fill="#33230B">?? ??? ??</text>
  <text x="150" y="516" font-size="18" font-weight="500" fill="#33230B">?? ??? ?? ????</text>
  <text x="150" y="546" font-size="18" font-weight="500" fill="#33230B">?? ??? ? ???</text>
  <line x1="598" y1="332" x2="576" y2="430" stroke="#8A5A12" stroke-width="5" stroke-linecap="round"/>
  <rect x="466" y="430" width="268" height="156" rx="20" fill="#FFFFFF" stroke="#8A5A12"/>
  <text x="490" y="476" font-size="24" font-weight="700" fill="#33230B">?? ??</text>
  <text x="490" y="516" font-size="18" font-weight="500" fill="#33230B">?? ??? ?? ????</text>
  <text x="490" y="546" font-size="18" font-weight="500" fill="#33230B">?? ??? ? ???</text>
  <line x1="598" y1="332" x2="916" y2="430" stroke="#8A5A12" stroke-width="5" stroke-linecap="round"/>
  <rect x="806" y="430" width="268" height="156" rx="20" fill="#FFFFFF" stroke="#8A5A12"/>
  <text x="830" y="476" font-size="24" font-weight="700" fill="#33230B">?? ??</text>
  <text x="830" y="516" font-size="18" font-weight="500" fill="#33230B">?? ??? ?? ????</text>
  <text x="830" y="546" font-size="18" font-weight="500" fill="#33230B">?? ??? ? ???</text>
</svg>