<svg xmlns="http://www.w3.org/2000/svg" width="1200" height="720" viewBox="0 0 1200 720" role="img" aria-labelledby="title desc">
  <title>???? ???? ?? ???</title>
  <desc>???? ???? ?? ??? ?? ??</desc>
  <rect width="1200" height="720" fill="#FCFBF8"/>
  <rect x="32" y="28" width="1136" height="664" rx="28" fill="#FFFFFF" stroke="#E9E3D8"/>
  <rect x="52" y="48" width="1096" height="92" rx="20" fill="#F3E4C8"/>
  <text x="84" y="92" font-size="36" font-weight="700" fill="#33230B">???? ???? ?? ???</text>
  <text x="84" y="126" font-size="18" fill="#33230B">DartLab Blog Visual Guide</text>
  <text x="96" y="200" font-size="24" font-weight="700" fill="#33230B">? ??? ?? ??? ?? ???</text>
  <rect x="96" y="240" width="488" height="140" rx="20" fill="#FFFFFF" stroke="#8A5A12"/>
  <circle cx="136" cy="280" r="18" fill="#8A5A12"/>
  <text x="128" y="288" font-size="18" font-weight="700" fill="#FFFFFF">1</text>
  <text x="168" y="288" font-size="22" font-weight="700" fill="#33230B">?????????</text>
  <text x="168" y="324" font-size="18" font-weight="500" fill="#33230B">? ???? ?? ??? ??? ????</text>
  <text x="168" y="354" font-size="18" font-weight="500" fill="#33230B">?? headline?? ?? ?? ??? ????</text>
  <rect x="616" y="240" width="488" height="140" rx="20" fill="#FFFFFF" stroke="#8A5A12"/>
  <circle cx="656" cy="280" r="18" fill="#8A5A12"/>
  <text x="648" y="288" font-size="18" font-weight="700" fill="#FFFFFF">2</text>
  <text x="688" y="288" font-size="22" font-weight="700" fill="#33230B">?? ?? ??</text>
  <text x="688" y="324" font-size="18" font-weight="500" fill="#33230B">? ???? ?? ??? ??? ????</text>
  <text x="688" y="354" font-size="18" font-weight="500" fill="#33230B">?? headline?? ?? ?? ??? ????</text>
  <rect x="96" y="410" width="488" height="140" rx="20" fill="#FFFFFF" stroke="#8A5A12"/>
  <circle cx="136" cy="450" r="18" fill="#8A5A12"/>
  <text x="128" y="458" font-size="18" font-weight="700" fill="#FFFFFF">3</text>
  <text x="168" y="458" font-size="22" font-weight="700" fill="#33230B">????? ??</text>
  <text x="168" y="494" font-size="18" font-weight="500" fill="#33230B">? ???? ?? ??? ??? ????</text>
  <text x="168" y="524" font-size="18" font-weight="500" fill="#33230B">?? headline?? ?? ?? ??? ????</text>
  <rect x="616" y="410" width="488" height="140" rx="20" fill="#FFFFFF" stroke="#8A5A12"/>
  <circle cx="656" cy="450" r="18" fill="#8A5A12"/>
  <text x="648" y="458" font-size="18" font-weight="700" fill="#FFFFFF">4</text>
  <text x="688" y="458" font-size="22" font-weight="700" fill="#33230B">???? ?? ??</text>
  <text x="688" y="494" font-size="18" font-weight="500" fill="#33230B">? ???? ?? ??? ??? ????</text>
  <text x="688" y="524" font-size="18" font-weight="500" fill="#33230B">?? headline?? ?? ?? ??? ????</text>
</svg>