<svg xmlns="http://www.w3.org/2000/svg" width="1280" height="720" viewBox="0 0 1280 720">
<defs>
  <marker id="arrow" viewBox="0 0 10 10" refX="9" refY="5" markerWidth="8" markerHeight="8" orient="auto-start-reverse">
    <path d="M 0 0 L 10 5 L 0 10 z" fill="#1d4ed8" />
  </marker>
</defs>
<rect x="0" y="0" width="1280" height="720" fill="#f6f8fb" />
<rect x="32" y="28" width="1216" height="72" rx="24" fill="#ffffff" stroke="#cbd5e1" />
<text x="64" y="62" font-size="30" font-weight="700" fill="#0f172a">????? ?? ??</text>
<text x="64" y="88" font-size="16" fill="#475569">?? ?? / ?? / ?? ??? ??? ??</text>
<rect x="520" y="136" width="240" height="90" rx="22" fill="#eff6ff" stroke="#cbd5e1" />
<text x="548" y="172" font-size="24" font-weight="700" fill="#0f172a">?? ??</text>
<text x="548" y="202" font-size="18" fill="#475569">?? ??? ???</text>
<text x="548" y="226" font-size="18" fill="#475569">? ?????, ?????</text>
<line x1="640" y1="226" x2="260" y2="320" stroke="#1d4ed8" stroke-width="4" marker-end="url(#arrow)" />
<line x1="640" y1="226" x2="640" y2="320" stroke="#1d4ed8" stroke-width="4" marker-end="url(#arrow)" />
<line x1="640" y1="226" x2="1020" y2="320" stroke="#1d4ed8" stroke-width="4" marker-end="url(#arrow)" />
<rect x="80" y="320" width="300" height="240" rx="22" fill="#ecfeff" stroke="#cbd5e1" />
<text x="104" y="354" font-size="22" font-weight="700" fill="#0f172a">?? ??? ??</text>
<text x="104" y="384" font-size="16" fill="#475569">??? ??</text>
<text x="104" y="410" font-size="16" fill="#475569">?? ??? ????</text>
<text x="104" y="436" font-size="16" fill="#475569">??? ??</text>
<rect x="490" y="320" width="300" height="240" rx="22" fill="#fff7ed" stroke="#cbd5e1" />
<text x="514" y="354" font-size="22" font-weight="700" fill="#0f172a">?? ??</text>
<text x="514" y="384" font-size="16" fill="#475569">??? ??? ??? ? ??</text>
<text x="514" y="410" font-size="16" fill="#475569">?? ???? ????</text>
<text x="514" y="436" font-size="16" fill="#475569">??? ??? ?? ??</text>
<rect x="900" y="320" width="300" height="240" rx="22" fill="#fef2f2" stroke="#cbd5e1" />
<text x="924" y="354" font-size="22" font-weight="700" fill="#b91c1c">?? ??</text>
<text x="924" y="384" font-size="16" fill="#475569">?? ??? ????</text>
<text x="924" y="410" font-size="16" fill="#475569">??????????? ???</text>
<text x="924" y="436" font-size="16" fill="#475569">???? ?? ??</text>
<text x="64" y="626" font-size="18" fill="#475569">??? ??? ??? ??? ???? ?? ??? ???</text>
</svg>