<svg xmlns="http://www.w3.org/2000/svg" width="800" height="430" viewBox="0 0 800 430" fill="none">
  <rect width="800" height="430" rx="28" fill="#050811"/>
  <rect x="24" y="24" width="752" height="382" rx="24" fill="#0f1219" stroke="#1e2433"/>
  <text x="48" y="62" fill="#f8fafc" font-family="Inter,system-ui,sans-serif" font-size="24" font-weight="700">Event to Financial Impact</text>
  <text x="48" y="86" fill="#94a3b8" font-family="Inter,system-ui,sans-serif" font-size="12">A single 8-K event often points to the next balance sheet or margin change.</text>
  <rect x="60" y="150" width="150" height="84" rx="16" fill="#111827" stroke="#334155"/>
  <text x="82" y="184" fill="#fda4a4" font-family="Inter,system-ui,sans-serif" font-size="14" font-weight="700">8-K Event</text>
  <text x="82" y="208" fill="#cbd5e1" font-family="Inter,system-ui,sans-serif" font-size="12">contract, funding, exit</text>
  <rect x="324" y="150" width="150" height="84" rx="16" fill="#111827" stroke="#334155"/>
  <text x="346" y="184" fill="#fdba74" font-family="Inter,system-ui,sans-serif" font-size="14" font-weight="700">Mechanism</text>
  <text x="346" y="208" fill="#cbd5e1" font-family="Inter,system-ui,sans-serif" font-size="12">revenue, cost, cash, trust</text>
  <rect x="588" y="122" width="150" height="60" rx="16" fill="#111827" stroke="#334155"/>
  <text x="610" y="158" fill="#86efac" font-family="Inter,system-ui,sans-serif" font-size="14" font-weight="700">Income Statement</text>
  <rect x="588" y="194" width="150" height="60" rx="16" fill="#111827" stroke="#334155"/>
  <text x="610" y="230" fill="#93c5fd" font-family="Inter,system-ui,sans-serif" font-size="14" font-weight="700">Balance Sheet</text>
  <rect x="588" y="266" width="150" height="60" rx="16" fill="#111827" stroke="#334155"/>
  <text x="610" y="302" fill="#f9a8d4" font-family="Inter,system-ui,sans-serif" font-size="14" font-weight="700">Cash Flow</text>
  <path d="M210 192H324" stroke="#ea4647" stroke-width="3"/>
  <path d="M474 162H588" stroke="#22c55e" stroke-width="3"/>
  <path d="M474 224H588" stroke="#60a5fa" stroke-width="3"/>
  <path d="M474 286H588" stroke="#ec4899" stroke-width="3"/>
</svg>
