<svg xmlns="http://www.w3.org/2000/svg" width="1280" height="720" viewBox="0 0 1280 720">
<rect width="1280" height="720" fill="#F8FAFC"/>
<text x="70" y="82" font-size="34" font-weight="700" fill="#065F46">??? ?? ??? ??</text>
<text x="70" y="116" font-size="18" fill="#475569">?? ???? ?? ???? ?? ?? ? ??</text>
<rect x="70" y="150" width="1140" height="470" rx="26" fill="#FFFFFF" stroke="#065F46" stroke-width="3"/>
<circle cx="120" cy="212" r="22" fill="#065F46"/>
<text x="120" y="219" text-anchor="middle" font-size="20" font-weight="700" fill="#FFFFFF">1</text>
<text x="160" y="220" font-size="21" fill="#1E293B">?? ?????</text>
<line x1="160" y1="232" x2="1140" y2="232" stroke="#CBD5E1" stroke-width="1"/>
<circle cx="120" cy="290" r="22" fill="#065F46"/>
<text x="120" y="297" text-anchor="middle" font-size="20" font-weight="700" fill="#FFFFFF">2</text>
<text x="160" y="298" font-size="21" fill="#1E293B">???? ??????</text>
<line x1="160" y1="310" x2="1140" y2="310" stroke="#CBD5E1" stroke-width="1"/>
<circle cx="120" cy="368" r="22" fill="#065F46"/>
<text x="120" y="375" text-anchor="middle" font-size="20" font-weight="700" fill="#FFFFFF">3</text>
<text x="160" y="376" font-size="21" fill="#1E293B">?? ??? ????</text>
<line x1="160" y1="388" x2="1140" y2="388" stroke="#CBD5E1" stroke-width="1"/>
<circle cx="120" cy="446" r="22" fill="#065F46"/>
<text x="120" y="453" text-anchor="middle" font-size="20" font-weight="700" fill="#FFFFFF">4</text>
<text x="160" y="454" font-size="21" fill="#1E293B">? ??? ? ?????</text>
<line x1="160" y1="466" x2="1140" y2="466" stroke="#CBD5E1" stroke-width="1"/>
<circle cx="120" cy="524" r="22" fill="#065F46"/>
<text x="120" y="531" text-anchor="middle" font-size="20" font-weight="700" fill="#FFFFFF">5</text>
<text x="160" y="532" font-size="21" fill="#1E293B">????? ???? ????</text>
<line x1="160" y1="544" x2="1140" y2="544" stroke="#CBD5E1" stroke-width="1"/>
<text x="70" y="670" font-size="19" fill="#475569">??: ?? ?? ??? ????? ?? ????? ?? ??, ?? ??, ?? ?? ??? ??? ? ????.</text>
</svg>