<svg xmlns="http://www.w3.org/2000/svg" width="1280" height="720" viewBox="0 0 1280 720">
<rect width="1280" height="720" fill="#F8FAFC"/>
<text x="70" y="82" font-size="34" font-weight="700" fill="#065F46">??? ?? ??? ??</text>
<text x="70" y="116" font-size="18" fill="#475569">?? ??? ?? ?? ?? ??? ?? ?? ???</text>
<rect x="100" y="180" rx="20" ry="20" width="180" height="300" fill="#FFFFFF" stroke="#065F46" stroke-width="2"/>
<rect x="100" y="180" rx="20" ry="20" width="180" height="58" fill="#D1FAE5"/>
<text x="190" y="218" text-anchor="middle" font-size="21" font-weight="700" fill="#032F23">??? ???</text>
<text x="118" y="280" font-size="18" fill="#334155">? ?? ?? ??</text>
<text x="118" y="326" font-size="18" fill="#334155">? ?? ???? ??</text>
<text x="118" y="372" font-size="18" fill="#334155">? ?? ?? ??</text>
<rect x="320" y="180" rx="20" ry="20" width="180" height="300" fill="#FFFFFF" stroke="#065F46" stroke-width="2"/>
<rect x="320" y="180" rx="20" ry="20" width="180" height="58" fill="#D1FAE5"/>
<text x="410" y="218" text-anchor="middle" font-size="21" font-weight="700" fill="#032F23">?? ?? ??</text>
<text x="338" y="280" font-size="18" fill="#334155">? ?? ?? ??</text>
<text x="338" y="326" font-size="18" fill="#334155">? ?? ???? ??</text>
<text x="338" y="372" font-size="18" fill="#334155">? ?? ?? ??</text>
<rect x="540" y="180" rx="20" ry="20" width="180" height="300" fill="#FFFFFF" stroke="#065F46" stroke-width="2"/>
<rect x="540" y="180" rx="20" ry="20" width="180" height="58" fill="#D1FAE5"/>
<text x="630" y="218" text-anchor="middle" font-size="21" font-weight="700" fill="#032F23">?? ??</text>
<text x="558" y="280" font-size="18" fill="#334155">? ?? ?? ??</text>
<text x="558" y="326" font-size="18" fill="#334155">? ?? ???? ??</text>
<text x="558" y="372" font-size="18" fill="#334155">? ?? ?? ??</text>
<rect x="760" y="180" rx="20" ry="20" width="180" height="300" fill="#FFFFFF" stroke="#065F46" stroke-width="2"/>
<rect x="760" y="180" rx="20" ry="20" width="180" height="58" fill="#D1FAE5"/>
<text x="850" y="218" text-anchor="middle" font-size="21" font-weight="700" fill="#032F23">?? ??</text>
<text x="778" y="280" font-size="18" fill="#334155">? ?? ?? ??</text>
<text x="778" y="326" font-size="18" fill="#334155">? ?? ???? ??</text>
<text x="778" y="372" font-size="18" fill="#334155">? ?? ?? ??</text>
<rect x="980" y="180" rx="20" ry="20" width="180" height="300" fill="#FFFFFF" stroke="#065F46" stroke-width="2"/>
<rect x="980" y="180" rx="20" ry="20" width="180" height="58" fill="#D1FAE5"/>
<text x="1070" y="218" text-anchor="middle" font-size="21" font-weight="700" fill="#032F23">?? ?????????</text>
<text x="998" y="280" font-size="18" fill="#334155">? ?? ?? ??</text>
<text x="998" y="326" font-size="18" fill="#334155">? ?? ???? ??</text>
<text x="998" y="372" font-size="18" fill="#334155">? ?? ?? ??</text>
<text x="100" y="560" font-size="19" fill="#475569">??: ? ???? ?? ??? ?? ????? ??, ??, ?? ??? ??? ??? ??? ?? ? ??.</text>
</svg>